<mxfile host="app.diagrams.net" modified="2024-02-04T00:46:21.583Z" agent="Mozilla/5.0 (Windows NT 10.0; Win64; x64) AppleWebKit/537.36 (KHTML, like Gecko) Chrome/120.0.0.0 Safari/537.36 CCleaner/120.0.0.0" etag="IooUOjAaq_OEhPjCKuZM" version="23.0.2" type="device">
  <diagram name="Page-1" id="7F7ICi1iBFWtUTjKkzl-">
    <mxGraphModel dx="2764" dy="981" grid="1" gridSize="10" guides="1" tooltips="1" connect="1" arrows="1" fold="1" page="1" pageScale="1" pageWidth="850" pageHeight="1100" math="0" shadow="0">
      <root>
        <mxCell id="0" />
        <mxCell id="1" parent="0" />
        <mxCell id="ECD6kAshmMfHRA11VEB7-1" value="Scheduler" style="swimlane;fontStyle=1;align=center;verticalAlign=top;childLayout=stackLayout;horizontal=1;startSize=26;horizontalStack=0;resizeParent=1;resizeParentMax=0;resizeLast=0;collapsible=1;marginBottom=0;whiteSpace=wrap;html=1;" vertex="1" parent="1">
          <mxGeometry x="-160" y="210" width="260" height="240" as="geometry" />
        </mxCell>
        <mxCell id="ECD6kAshmMfHRA11VEB7-2" value="-IN_PORT: int&lt;br&gt;-sockets: DatagramSocket&lt;br&gt;-flores: List&amp;lt;Floors&amp;gt;&lt;br&gt;-elevators: List&amp;lt;Elevator&amp;gt;" style="text;strokeColor=none;fillColor=none;align=left;verticalAlign=top;spacingLeft=4;spacingRight=4;overflow=hidden;rotatable=0;points=[[0,0.5],[1,0.5]];portConstraint=eastwest;whiteSpace=wrap;html=1;" vertex="1" parent="ECD6kAshmMfHRA11VEB7-1">
          <mxGeometry y="26" width="260" height="74" as="geometry" />
        </mxCell>
        <mxCell id="ECD6kAshmMfHRA11VEB7-3" value="" style="line;strokeWidth=1;fillColor=none;align=left;verticalAlign=middle;spacingTop=-1;spacingLeft=3;spacingRight=3;rotatable=0;labelPosition=right;points=[];portConstraint=eastwest;strokeColor=inherit;" vertex="1" parent="ECD6kAshmMfHRA11VEB7-1">
          <mxGeometry y="100" width="260" height="8" as="geometry" />
        </mxCell>
        <mxCell id="ECD6kAshmMfHRA11VEB7-4" value="+ addFloor(Floor): void&lt;br&gt;+parseRequest(DatagramPacket): void&lt;br&gt;+ run(): void&lt;br&gt;+chooseElevator(int, int): void&lt;br&gt;+createPacket(int, int):DatagramPacket&lt;br&gt;+sendRequest(DatagramPacket): void" style="text;strokeColor=none;fillColor=none;align=left;verticalAlign=top;spacingLeft=4;spacingRight=4;overflow=hidden;rotatable=0;points=[[0,0.5],[1,0.5]];portConstraint=eastwest;whiteSpace=wrap;html=1;" vertex="1" parent="ECD6kAshmMfHRA11VEB7-1">
          <mxGeometry y="108" width="260" height="132" as="geometry" />
        </mxCell>
        <mxCell id="ECD6kAshmMfHRA11VEB7-5" value="Floor" style="swimlane;fontStyle=1;align=center;verticalAlign=top;childLayout=stackLayout;horizontal=1;startSize=26;horizontalStack=0;resizeParent=1;resizeParentMax=0;resizeLast=0;collapsible=1;marginBottom=0;whiteSpace=wrap;html=1;" vertex="1" parent="1">
          <mxGeometry x="740" y="190" width="280" height="210" as="geometry" />
        </mxCell>
        <mxCell id="ECD6kAshmMfHRA11VEB7-6" value="-nextPort: int&lt;br&gt;-nextFloorNum: int&lt;br&gt;-OUT_PORT: int&lt;br&gt;-IN_PORT : int&lt;br&gt;FLOOR_NUM: int&lt;br&gt;socket: DatagramSocket&lt;br&gt;" style="text;strokeColor=none;fillColor=none;align=left;verticalAlign=top;spacingLeft=4;spacingRight=4;overflow=hidden;rotatable=0;points=[[0,0.5],[1,0.5]];portConstraint=eastwest;whiteSpace=wrap;html=1;" vertex="1" parent="ECD6kAshmMfHRA11VEB7-5">
          <mxGeometry y="26" width="280" height="94" as="geometry" />
        </mxCell>
        <mxCell id="ECD6kAshmMfHRA11VEB7-7" value="" style="line;strokeWidth=1;fillColor=none;align=left;verticalAlign=middle;spacingTop=-1;spacingLeft=3;spacingRight=3;rotatable=0;labelPosition=right;points=[];portConstraint=eastwest;strokeColor=inherit;" vertex="1" parent="ECD6kAshmMfHRA11VEB7-5">
          <mxGeometry y="120" width="280" height="8" as="geometry" />
        </mxCell>
        <mxCell id="ECD6kAshmMfHRA11VEB7-8" value="+run(): void&lt;br&gt;sendRequest(ButtonType, int, int): void&lt;br&gt;createPacket(ButtonType, int, int): DatagramPacket&lt;br&gt;parsePacket(DatagramPacket): void" style="text;strokeColor=none;fillColor=none;align=left;verticalAlign=top;spacingLeft=4;spacingRight=4;overflow=hidden;rotatable=0;points=[[0,0.5],[1,0.5]];portConstraint=eastwest;whiteSpace=wrap;html=1;" vertex="1" parent="ECD6kAshmMfHRA11VEB7-5">
          <mxGeometry y="128" width="280" height="82" as="geometry" />
        </mxCell>
        <mxCell id="ECD6kAshmMfHRA11VEB7-9" value="Elevator" style="swimlane;fontStyle=1;align=center;verticalAlign=top;childLayout=stackLayout;horizontal=1;startSize=26;horizontalStack=0;resizeParent=1;resizeParentMax=0;resizeLast=0;collapsible=1;marginBottom=0;whiteSpace=wrap;html=1;" vertex="1" parent="1">
          <mxGeometry x="220" y="290" width="440" height="310" as="geometry" />
        </mxCell>
        <mxCell id="ECD6kAshmMfHRA11VEB7-10" value="+socket: DatagramSocket&lt;br&gt;+motor: Motor&lt;br&gt;+door: Door&lt;br&gt;+buttons: List&amp;lt;ElevatorButton&amp;gt;&lt;br&gt;+lamps: List&amp;lt;ElevatorLamp&amp;gt;&lt;br&gt;+currentFloor: int&lt;br&gt;+destinationFloor: int&lt;br&gt;+numOfFloors: int&lt;br&gt;+numOfPassengers: Int" style="text;strokeColor=none;fillColor=none;align=left;verticalAlign=top;spacingLeft=4;spacingRight=4;overflow=hidden;rotatable=0;points=[[0,0.5],[1,0.5]];portConstraint=eastwest;whiteSpace=wrap;html=1;" vertex="1" parent="ECD6kAshmMfHRA11VEB7-9">
          <mxGeometry y="26" width="440" height="144" as="geometry" />
        </mxCell>
        <mxCell id="ECD6kAshmMfHRA11VEB7-11" value="" style="line;strokeWidth=1;fillColor=none;align=left;verticalAlign=middle;spacingTop=-1;spacingLeft=3;spacingRight=3;rotatable=0;labelPosition=right;points=[];portConstraint=eastwest;strokeColor=inherit;" vertex="1" parent="ECD6kAshmMfHRA11VEB7-9">
          <mxGeometry y="170" width="440" height="8" as="geometry" />
        </mxCell>
        <mxCell id="ECD6kAshmMfHRA11VEB7-12" value="&lt;br&gt;+Elevator(): void&lt;br&gt;+main(): void&lt;br&gt;+run(): void&lt;br&gt;+parseRequest(): void&lt;br&gt;+move(): void&lt;br&gt;+sendUpdates(): void&lt;br&gt;+getPort(): int" style="text;strokeColor=none;fillColor=none;align=left;verticalAlign=top;spacingLeft=4;spacingRight=4;overflow=hidden;rotatable=0;points=[[0,0.5],[1,0.5]];portConstraint=eastwest;whiteSpace=wrap;html=1;" vertex="1" parent="ECD6kAshmMfHRA11VEB7-9">
          <mxGeometry y="178" width="440" height="132" as="geometry" />
        </mxCell>
        <mxCell id="ECD6kAshmMfHRA11VEB7-13" value="ElevatorLamp" style="swimlane;fontStyle=1;align=center;verticalAlign=top;childLayout=stackLayout;horizontal=1;startSize=26;horizontalStack=0;resizeParent=1;resizeParentMax=0;resizeLast=0;collapsible=1;marginBottom=0;whiteSpace=wrap;html=1;" vertex="1" parent="1">
          <mxGeometry x="710" y="766" width="220" height="130" as="geometry" />
        </mxCell>
        <mxCell id="ECD6kAshmMfHRA11VEB7-14" value="-id: int&lt;br&gt;isOn: boolean" style="text;strokeColor=none;fillColor=none;align=left;verticalAlign=top;spacingLeft=4;spacingRight=4;overflow=hidden;rotatable=0;points=[[0,0.5],[1,0.5]];portConstraint=eastwest;whiteSpace=wrap;html=1;" vertex="1" parent="ECD6kAshmMfHRA11VEB7-13">
          <mxGeometry y="26" width="220" height="44" as="geometry" />
        </mxCell>
        <mxCell id="ECD6kAshmMfHRA11VEB7-15" value="" style="line;strokeWidth=1;fillColor=none;align=left;verticalAlign=middle;spacingTop=-1;spacingLeft=3;spacingRight=3;rotatable=0;labelPosition=right;points=[];portConstraint=eastwest;strokeColor=inherit;" vertex="1" parent="ECD6kAshmMfHRA11VEB7-13">
          <mxGeometry y="70" width="220" height="8" as="geometry" />
        </mxCell>
        <mxCell id="ECD6kAshmMfHRA11VEB7-16" value="+turnOn(): void&lt;br&gt;+turnOff(): void" style="text;strokeColor=none;fillColor=none;align=left;verticalAlign=top;spacingLeft=4;spacingRight=4;overflow=hidden;rotatable=0;points=[[0,0.5],[1,0.5]];portConstraint=eastwest;whiteSpace=wrap;html=1;" vertex="1" parent="ECD6kAshmMfHRA11VEB7-13">
          <mxGeometry y="78" width="220" height="52" as="geometry" />
        </mxCell>
        <mxCell id="ECD6kAshmMfHRA11VEB7-17" value="ElevatorButton" style="swimlane;fontStyle=1;align=center;verticalAlign=top;childLayout=stackLayout;horizontal=1;startSize=26;horizontalStack=0;resizeParent=1;resizeParentMax=0;resizeLast=0;collapsible=1;marginBottom=0;whiteSpace=wrap;html=1;" vertex="1" parent="1">
          <mxGeometry x="-270" y="780" width="390" height="300" as="geometry" />
        </mxCell>
        <mxCell id="ECD6kAshmMfHRA11VEB7-18" value="-socket: DatagramSocket&lt;br&gt;-motor: Motor&lt;br&gt;-door:Door&lt;br&gt;-buttons: List&amp;lt;ElevatorButtons&amp;gt;&lt;br&gt;-lamps: : List&amp;lt;ElevatorLamps&amp;gt;&lt;br&gt;-currentFloor: int&lt;br&gt;-desinationFloor: int&lt;br&gt;-numOfFloors: int&lt;br&gt;-numofPassengers: int" style="text;strokeColor=none;fillColor=none;align=left;verticalAlign=top;spacingLeft=4;spacingRight=4;overflow=hidden;rotatable=0;points=[[0,0.5],[1,0.5]];portConstraint=eastwest;whiteSpace=wrap;html=1;" vertex="1" parent="ECD6kAshmMfHRA11VEB7-17">
          <mxGeometry y="26" width="390" height="154" as="geometry" />
        </mxCell>
        <mxCell id="ECD6kAshmMfHRA11VEB7-19" value="" style="line;strokeWidth=1;fillColor=none;align=left;verticalAlign=middle;spacingTop=-1;spacingLeft=3;spacingRight=3;rotatable=0;labelPosition=right;points=[];portConstraint=eastwest;strokeColor=inherit;" vertex="1" parent="ECD6kAshmMfHRA11VEB7-17">
          <mxGeometry y="180" width="390" height="8" as="geometry" />
        </mxCell>
        <mxCell id="ECD6kAshmMfHRA11VEB7-20" value="+Elevator(): void&lt;br&gt;+main(): void&lt;br&gt;+run(): void&lt;br&gt;+parseRequest(): void&lt;br&gt;+move(): void&lt;br&gt;+sendUpdate(): void&lt;br&gt;+getPort(): void" style="text;strokeColor=none;fillColor=none;align=left;verticalAlign=top;spacingLeft=4;spacingRight=4;overflow=hidden;rotatable=0;points=[[0,0.5],[1,0.5]];portConstraint=eastwest;whiteSpace=wrap;html=1;" vertex="1" parent="ECD6kAshmMfHRA11VEB7-17">
          <mxGeometry y="188" width="390" height="112" as="geometry" />
        </mxCell>
        <mxCell id="ECD6kAshmMfHRA11VEB7-21" value="Door" style="swimlane;fontStyle=1;align=center;verticalAlign=top;childLayout=stackLayout;horizontal=1;startSize=26;horizontalStack=0;resizeParent=1;resizeParentMax=0;resizeLast=0;collapsible=1;marginBottom=0;whiteSpace=wrap;html=1;" vertex="1" parent="1">
          <mxGeometry x="440" y="766" width="230" height="150" as="geometry" />
        </mxCell>
        <mxCell id="ECD6kAshmMfHRA11VEB7-22" value="isOpen: boolean&lt;br&gt;" style="text;strokeColor=none;fillColor=none;align=left;verticalAlign=top;spacingLeft=4;spacingRight=4;overflow=hidden;rotatable=0;points=[[0,0.5],[1,0.5]];portConstraint=eastwest;whiteSpace=wrap;html=1;" vertex="1" parent="ECD6kAshmMfHRA11VEB7-21">
          <mxGeometry y="26" width="230" height="54" as="geometry" />
        </mxCell>
        <mxCell id="ECD6kAshmMfHRA11VEB7-23" value="" style="line;strokeWidth=1;fillColor=none;align=left;verticalAlign=middle;spacingTop=-1;spacingLeft=3;spacingRight=3;rotatable=0;labelPosition=right;points=[];portConstraint=eastwest;strokeColor=inherit;" vertex="1" parent="ECD6kAshmMfHRA11VEB7-21">
          <mxGeometry y="80" width="230" height="8" as="geometry" />
        </mxCell>
        <mxCell id="ECD6kAshmMfHRA11VEB7-24" value="+open(): void&lt;br&gt;+close(): void" style="text;strokeColor=none;fillColor=none;align=left;verticalAlign=top;spacingLeft=4;spacingRight=4;overflow=hidden;rotatable=0;points=[[0,0.5],[1,0.5]];portConstraint=eastwest;whiteSpace=wrap;html=1;" vertex="1" parent="ECD6kAshmMfHRA11VEB7-21">
          <mxGeometry y="88" width="230" height="62" as="geometry" />
        </mxCell>
        <mxCell id="ECD6kAshmMfHRA11VEB7-25" value="Motor" style="swimlane;fontStyle=1;align=center;verticalAlign=top;childLayout=stackLayout;horizontal=1;startSize=26;horizontalStack=0;resizeParent=1;resizeParentMax=0;resizeLast=0;collapsible=1;marginBottom=0;whiteSpace=wrap;html=1;" vertex="1" parent="1">
          <mxGeometry x="190" y="790" width="170" height="34" as="geometry" />
        </mxCell>
        <mxCell id="ECD6kAshmMfHRA11VEB7-27" value="" style="line;strokeWidth=1;fillColor=none;align=left;verticalAlign=middle;spacingTop=-1;spacingLeft=3;spacingRight=3;rotatable=0;labelPosition=right;points=[];portConstraint=eastwest;strokeColor=inherit;" vertex="1" parent="ECD6kAshmMfHRA11VEB7-25">
          <mxGeometry y="26" width="170" height="8" as="geometry" />
        </mxCell>
        <mxCell id="ECD6kAshmMfHRA11VEB7-34" value="1" style="text;html=1;strokeColor=none;fillColor=none;align=center;verticalAlign=middle;whiteSpace=wrap;rounded=0;" vertex="1" parent="1">
          <mxGeometry x="-10" y="700" width="60" height="30" as="geometry" />
        </mxCell>
        <mxCell id="ECD6kAshmMfHRA11VEB7-35" value="1" style="text;html=1;strokeColor=none;fillColor=none;align=center;verticalAlign=middle;whiteSpace=wrap;rounded=0;" vertex="1" parent="1">
          <mxGeometry x="260" y="540" width="60" height="30" as="geometry" />
        </mxCell>
        <mxCell id="ECD6kAshmMfHRA11VEB7-37" value="1" style="text;html=1;strokeColor=none;fillColor=none;align=center;verticalAlign=middle;whiteSpace=wrap;rounded=0;" vertex="1" parent="1">
          <mxGeometry x="740" y="680" width="60" height="30" as="geometry" />
        </mxCell>
        <mxCell id="ECD6kAshmMfHRA11VEB7-39" value="" style="endArrow=classic;html=1;rounded=0;entryX=0.5;entryY=0;entryDx=0;entryDy=0;" edge="1" parent="1" target="ECD6kAshmMfHRA11VEB7-17">
          <mxGeometry width="50" height="50" relative="1" as="geometry">
            <mxPoint x="300" y="640" as="sourcePoint" />
            <mxPoint x="200" y="430" as="targetPoint" />
            <Array as="points">
              <mxPoint x="20" y="640" />
            </Array>
          </mxGeometry>
        </mxCell>
        <mxCell id="ECD6kAshmMfHRA11VEB7-41" value="Runnable Interface" style="swimlane;fontStyle=1;align=center;verticalAlign=top;childLayout=stackLayout;horizontal=1;startSize=26;horizontalStack=0;resizeParent=1;resizeParentMax=0;resizeLast=0;collapsible=1;marginBottom=0;whiteSpace=wrap;html=1;" vertex="1" parent="1">
          <mxGeometry x="205" y="60" width="425" height="60" as="geometry" />
        </mxCell>
        <mxCell id="ECD6kAshmMfHRA11VEB7-42" value="+run(): void" style="text;strokeColor=none;fillColor=none;align=left;verticalAlign=top;spacingLeft=4;spacingRight=4;overflow=hidden;rotatable=0;points=[[0,0.5],[1,0.5]];portConstraint=eastwest;whiteSpace=wrap;html=1;" vertex="1" parent="ECD6kAshmMfHRA11VEB7-41">
          <mxGeometry y="26" width="425" height="26" as="geometry" />
        </mxCell>
        <mxCell id="ECD6kAshmMfHRA11VEB7-43" value="" style="line;strokeWidth=1;fillColor=none;align=left;verticalAlign=middle;spacingTop=-1;spacingLeft=3;spacingRight=3;rotatable=0;labelPosition=right;points=[];portConstraint=eastwest;strokeColor=inherit;" vertex="1" parent="ECD6kAshmMfHRA11VEB7-41">
          <mxGeometry y="52" width="425" height="8" as="geometry" />
        </mxCell>
        <mxCell id="ECD6kAshmMfHRA11VEB7-45" value="implements" style="html=1;verticalAlign=bottom;endArrow=block;curved=0;rounded=0;exitX=0.442;exitY=-0.012;exitDx=0;exitDy=0;exitPerimeter=0;" edge="1" parent="1" source="ECD6kAshmMfHRA11VEB7-9">
          <mxGeometry width="80" relative="1" as="geometry">
            <mxPoint x="390" y="300" as="sourcePoint" />
            <mxPoint x="410" y="120" as="targetPoint" />
          </mxGeometry>
        </mxCell>
        <mxCell id="ECD6kAshmMfHRA11VEB7-46" value="implements" style="html=1;verticalAlign=bottom;endArrow=block;curved=0;rounded=0;entryX=0.4;entryY=1;entryDx=0;entryDy=0;entryPerimeter=0;exitX=0.603;exitY=-0.015;exitDx=0;exitDy=0;exitPerimeter=0;" edge="1" parent="1" source="ECD6kAshmMfHRA11VEB7-1" target="ECD6kAshmMfHRA11VEB7-43">
          <mxGeometry width="80" relative="1" as="geometry">
            <mxPoint x="160" y="200" as="sourcePoint" />
            <mxPoint x="357.79999999999995" y="169.20000000000005" as="targetPoint" />
          </mxGeometry>
        </mxCell>
        <mxCell id="ECD6kAshmMfHRA11VEB7-47" value="implements" style="html=1;verticalAlign=bottom;endArrow=block;curved=0;rounded=0;exitX=0.5;exitY=0;exitDx=0;exitDy=0;" edge="1" parent="1" source="ECD6kAshmMfHRA11VEB7-5">
          <mxGeometry width="80" relative="1" as="geometry">
            <mxPoint x="470" y="240" as="sourcePoint" />
            <mxPoint x="440" y="120" as="targetPoint" />
          </mxGeometry>
        </mxCell>
        <mxCell id="ECD6kAshmMfHRA11VEB7-48" value="uses" style="html=1;verticalAlign=bottom;endArrow=block;curved=0;rounded=0;entryX=1.007;entryY=0.7;entryDx=0;entryDy=0;entryPerimeter=0;exitX=0.01;exitY=1.005;exitDx=0;exitDy=0;exitPerimeter=0;" edge="1" parent="1" source="ECD6kAshmMfHRA11VEB7-10" target="ECD6kAshmMfHRA11VEB7-2">
          <mxGeometry width="80" relative="1" as="geometry">
            <mxPoint x="280" y="410" as="sourcePoint" />
            <mxPoint x="360" y="410" as="targetPoint" />
          </mxGeometry>
        </mxCell>
        <mxCell id="ECD6kAshmMfHRA11VEB7-49" value="uses" style="html=1;verticalAlign=bottom;endArrow=block;curved=0;rounded=0;entryX=1.006;entryY=0.4;entryDx=0;entryDy=0;entryPerimeter=0;exitX=-0.004;exitY=0.609;exitDx=0;exitDy=0;exitPerimeter=0;" edge="1" parent="1" source="ECD6kAshmMfHRA11VEB7-6" target="ECD6kAshmMfHRA11VEB7-2">
          <mxGeometry width="80" relative="1" as="geometry">
            <mxPoint x="560" y="260" as="sourcePoint" />
            <mxPoint x="303.18" y="270.398" as="targetPoint" />
          </mxGeometry>
        </mxCell>
        <mxCell id="ECD6kAshmMfHRA11VEB7-52" value="" style="endArrow=diamondThin;endFill=0;endSize=24;html=1;rounded=0;entryX=0.511;entryY=1.036;entryDx=0;entryDy=0;entryPerimeter=0;" edge="1" parent="1" target="ECD6kAshmMfHRA11VEB7-12">
          <mxGeometry width="160" relative="1" as="geometry">
            <mxPoint x="445" y="640" as="sourcePoint" />
            <mxPoint x="540" y="660" as="targetPoint" />
          </mxGeometry>
        </mxCell>
        <mxCell id="ECD6kAshmMfHRA11VEB7-53" value="1" style="text;html=1;strokeColor=none;fillColor=none;align=center;verticalAlign=middle;whiteSpace=wrap;rounded=0;" vertex="1" parent="1">
          <mxGeometry x="235" y="710" width="60" height="30" as="geometry" />
        </mxCell>
        <mxCell id="ECD6kAshmMfHRA11VEB7-54" value="1" style="text;html=1;strokeColor=none;fillColor=none;align=center;verticalAlign=middle;whiteSpace=wrap;rounded=0;" vertex="1" parent="1">
          <mxGeometry x="490" y="680" width="60" height="30" as="geometry" />
        </mxCell>
        <mxCell id="ECD6kAshmMfHRA11VEB7-56" value="" style="endArrow=classic;html=1;rounded=0;entryX=0.5;entryY=0;entryDx=0;entryDy=0;" edge="1" parent="1">
          <mxGeometry width="50" height="50" relative="1" as="geometry">
            <mxPoint x="440" y="640" as="sourcePoint" />
            <mxPoint x="280" y="785" as="targetPoint" />
            <Array as="points">
              <mxPoint x="300" y="640" />
            </Array>
          </mxGeometry>
        </mxCell>
        <mxCell id="ECD6kAshmMfHRA11VEB7-57" value="" style="endArrow=classic;html=1;rounded=0;" edge="1" parent="1">
          <mxGeometry width="50" height="50" relative="1" as="geometry">
            <mxPoint x="440" y="640" as="sourcePoint" />
            <mxPoint x="550" y="760" as="targetPoint" />
            <Array as="points">
              <mxPoint x="570" y="640" />
            </Array>
          </mxGeometry>
        </mxCell>
        <mxCell id="ECD6kAshmMfHRA11VEB7-58" value="" style="endArrow=classic;html=1;rounded=0;" edge="1" parent="1">
          <mxGeometry width="50" height="50" relative="1" as="geometry">
            <mxPoint x="450" y="640" as="sourcePoint" />
            <mxPoint x="800" y="766" as="targetPoint" />
            <Array as="points">
              <mxPoint x="630" y="640" />
              <mxPoint x="800" y="640" />
            </Array>
          </mxGeometry>
        </mxCell>
      </root>
    </mxGraphModel>
  </diagram>
</mxfile>
